<svg width="34" height="30" viewBox="0 0 34 30" fill="none" xmlns="http://www.w3.org/2000/svg">
    <path d="M15.25 12.7734V12.4219C15.25 11.5523 15.8359 10.8398 16.6703 10.6295L26.9002 7.89432C27.0736 7.84793 27.2553 7.84198 27.4313 7.87692C27.6073 7.91187 27.773 7.98678 27.9155 8.09588C28.058 8.20498 28.1735 8.34535 28.2532 8.50617C28.3329 8.66699 28.3745 8.84396 28.375 9.02343V10.3125" stroke="currentColor" stroke-width="2" />
    <path d="M28.375 17.3402V22.0277C28.375 22.8428 27.8518 23.5271 27.0859 23.7855L25.7969 24.2543C24.2793 24.7652 22.75 23.6437 22.75 22.0277C22.7465 21.6126 22.8752 21.2071 23.1175 20.87C23.3598 20.5329 23.7031 20.2817 24.0977 20.1527L27.0859 19.0892C27.8518 18.8314 28.375 18.1553 28.375 17.3402ZM28.375 17.3402V3.39842C28.3746 3.30872 28.3536 3.2203 28.3136 3.13999C28.2736 3.05969 28.2157 2.98963 28.1444 2.93523C28.0731 2.88082 27.9902 2.84353 27.9022 2.82621C27.8142 2.80889 27.7233 2.81201 27.6367 2.83534L15.9531 5.97655C15.7493 6.0341 15.5701 6.15705 15.4431 6.32645C15.316 6.49584 15.2482 6.70231 15.25 6.91405V20.1562M15.25 20.1562C15.25 20.9713 14.7268 21.6562 13.9609 21.914L10.9141 22.9687C10.1008 23.243 9.625 23.9777 9.625 24.8437C9.625 26.4598 11.1789 27.5713 12.6719 27.0703L13.9609 26.6015C14.7268 26.3437 15.25 25.6594 15.25 24.8437V20.1562Z" stroke="currentColor" stroke-width="2" />
    <path d="M1 4H7H13M1 9.5625H10M1 15.0625H10" stroke="currentColor" stroke-width="2"/>
</svg>
